<?xml version="1.0" encoding="UTF-8" standalone="no"?>
<!-- Created with Inkscape (http://www.inkscape.org/) -->

<svg
   xmlns:dc="http://purl.org/dc/elements/1.1/"
   xmlns:cc="http://creativecommons.org/ns#"
   xmlns:rdf="http://www.w3.org/1999/02/22-rdf-syntax-ns#"
   xmlns:svg="http://www.w3.org/2000/svg"
   xmlns="http://www.w3.org/2000/svg"
   xmlns:sodipodi="http://sodipodi.sourceforge.net/DTD/sodipodi-0.dtd"
   xmlns:inkscape="http://www.inkscape.org/namespaces/inkscape"
   width="150"
   height="50"
   viewBox="0 0 150.00001 49.999997"
   id="svg7538"
   version="1.1"
   inkscape:version="0.91 r13725"
   sodipodi:docname="abb_menu.svg">
  <defs
     id="defs7540" />
  <sodipodi:namedview
     id="base"
     pagecolor="#ffffff"
     bordercolor="#666666"
     borderopacity="1.0"
     inkscape:pageopacity="0.0"
     inkscape:pageshadow="2"
     inkscape:zoom="7.9195959"
     inkscape:cx="81.535796"
     inkscape:cy="57.242649"
     inkscape:document-units="px"
     inkscape:current-layer="layer1"
     showgrid="false"
     units="px"
     inkscape:window-width="1920"
     inkscape:window-height="1143"
     inkscape:window-x="0"
     inkscape:window-y="0"
     inkscape:window-maximized="1" />
  <metadata
     id="metadata7543">
    <rdf:RDF>
      <cc:Work
         rdf:about="">
        <dc:format>image/svg+xml</dc:format>
        <dc:type
           rdf:resource="http://purl.org/dc/dcmitype/StillImage" />
        <dc:title />
      </cc:Work>
    </rdf:RDF>
  </metadata>
  <g
     inkscape:label="Layer 1"
     inkscape:groupmode="layer"
     id="layer1"
     transform="translate(0,-1002.3622)">
    <text
       style="font-weight:bold;font-size:13.82636356px;font-family:'Avenir LT Std 55 Roman';clip-rule:evenodd;fill:#d91428;fill-rule:evenodd;image-rendering:optimizeQuality;shape-rendering:geometricPrecision;text-rendering:geometricPrecision"
       id="text4181"
       class="fil0 fnt0"
       y="1032.3911"
       x="56.989616">am<tspan
   style="fill:#000000"
   id="tspan3344">sterdam</tspan>
</text>
    <text
       style="font-weight:bold;font-size:13.82636356px;font-family:'Avenir LT Std 55 Roman';clip-rule:evenodd;fill:#373435;fill-rule:evenodd;image-rendering:optimizeQuality;shape-rendering:geometricPrecision;text-rendering:geometricPrecision"
       id="text4185"
       class="fil1 fnt0"
       y="1048.8308"
       x="56.989616">by bike.eu</text>
    <g
       transform="matrix(4.3893473e-4,0,0,4.3893473e-4,-70.882286,802.04427)"
       style="clip-rule:evenodd;fill-rule:evenodd;image-rendering:optimizeQuality;shape-rendering:geometricPrecision;text-rendering:geometricPrecision"
       id="g4193">
      <path
         style="fill:none;stroke:#373435;stroke-width:500"
         inkscape:connector-curvature="0"
         id="path4195"
         d="m 216748,496396 7175,0 0,8347 -7175,0 0,-8347 z m 0,-4158 7175,0 0,3338 -7175,0 0,-3338 z m -937,-1084 8903,0 0,14556 -8903,0 0,-14556 z m 15975,5242 7175,0 0,8347 -7175,0 0,-8347 z m 0,-4158 7175,0 0,3338 -7175,0 0,-3338 z m -937,-1084 8903,0 0,14556 -8903,0 0,-14556 z m -14101,23195 7175,0 0,8347 -7175,0 0,-8347 z m 0,-4158 7175,0 0,3338 -7175,0 0,-3338 z m -937,-1084 8903,0 0,14556 -8903,0 0,-14556 z m 15975,5242 7175,0 0,8347 -7175,0 0,-8347 z m 0,-4158 7175,0 0,3338 -7175,0 0,-3338 z m -937,-1084 8903,0 0,14556 -8903,0 0,-14556 z m 3373,-31953 c 0,-2859 -2668,-5178 -5957,-5178 -3289,0 -5957,2319 -5957,5178 -547,0 -1094,0 -1640,0 0,-3646 3402,-6604 7597,-6604 4194,0 7597,2958 7597,6604 -547,0 0,0 -1640,0 z m -5896,-3485 0,8307 m 0,-9376 c 2887,0 5228,2341 5228,5228 0,2887 -2341,5228 -5228,5228 -2887,0 -5228,-2341 -5228,-5228 0,-2887 2341,-5228 5228,-5228 z m 0,1069 c 2297,0 4159,1862 4159,4159 0,2297 -1862,4159 -4159,4159 -2297,0 -4159,-1862 -4159,-4159 0,-2297 1862,-4159 4159,-4159 z m 4159,4159 -8318,0 m 4467,83446 -9870,0 -9870,0 0,-72727 835,0 4906,-28101 -821,0 0,-1977 14666,0 m -154,102805 9870,0 9869,0 0,-72727 -834,0 -4906,-28101 820,0 0,-1977 -14665,0 m 13845,1977 -27690,0 m 32596,28101 -37502,0 m -835,1977 39171,0"
         class="fil2 str1" />
      <path
         style="fill:#373435;stroke:#373435;stroke-width:6.94488001"
         inkscape:connector-curvature="0"
         id="path4197"
         d="m 239752,491154 0,14556 -8903,0 0,-14556 8903,0 z m 8313,-630 -39171,0 0,70750 9870,0 9562,0 9870,0 9869,0 0,-70750 z m -23351,630 0,14556 -8903,0 0,-14556 8903,0 z m 6135,17953 8903,0 0,14556 -8903,0 0,-14556 z m -6135,0 0,14556 -8903,0 0,-14556 8903,0 z m -15820,-18583 39171,0 0,-1977 -834,0 -37502,0 -835,0 0,1977 z m 835,-1977 37502,0 -4906,-28101 -27690,0 -4906,28101 z m 26133,-11393 -1640,0 c 0,-2859 -2668,-5178 -5957,-5178 -3289,0 -5957,2319 -5957,5178 l -1640,0 c 0,-3646 3402,-6604 7597,-6604 4194,0 7597,2958 7597,6604 z m -2308,674 c 0,2887 -2341,5228 -5228,5228 -2887,0 -5228,-2341 -5228,-5228 0,-2887 2341,-5228 5228,-5228 2887,0 5228,2341 5228,5228 z"
         class="fil4 str0" />
      <path
         style="fill:#373435;stroke:#373435;stroke-width:6.94488001"
         inkscape:connector-curvature="0"
         id="path4199"
         d="m 248065,490524 0,70750 20019,0 20019,0 0,-78588 c 1603,-708 -14079,368 -13907,-16929 l -3043,39 c 38,-2042 397,-5403 -3069,-5627 -3466,224 -3107,3585 -3069,5627 l -3042,-39 c 171,17297 -15511,16221 -13908,16929 l 0,5861 0,1977 z m 25717,22116 0,-4864 0,-3945 4941,0 0,3945 0,4864 -4941,0 z m -12125,0 -4941,0 0,-4864 0,-3945 4941,0 0,3945 0,4864 z m 17066,-12103 -4941,0 0,-4864 0,-3945 4941,0 0,3945 0,4864 z m -17066,0 -4941,0 0,-4864 0,-3945 4941,0 0,3945 0,4864 z m 6069,-10992 -3121,0 0,-4366 0,-3830 0,-4290 3121,0 3122,0 0,4290 0,3830 0,4366 -3122,0 z m 2015,-17110 c 0,995 -806,1800 -1800,1800 -994,0 -1800,-805 -1800,-1800 0,-994 806,-1800 1800,-1800 994,0 1800,806 1800,1800 z"
         class="fil4 str0" />
      <path
         style="fill:none;stroke:#373435;stroke-width:500"
         inkscape:connector-curvature="0"
         id="path4201"
         d="m 268084,561274 -20019,0 0,-78588 c -1603,-708 14079,368 13908,-16929 m 0,0 3042,39 m 0,0 c -38,-2042 -397,-5403 3069,-5627 m 0,101105 20019,0 0,-78588 c 1603,-708 -14079,368 -13907,-16929 m 0,0 -3043,39 m 0,0 c 38,-2042 397,-5403 -3069,-5627 m 5698,47607 4941,0 m -4941,-3945 4941,0 0,8809 -4941,0 0,-8809 z m -17066,3945 4941,0 m -4941,-3945 4941,0 0,8809 -4941,0 0,-8809 z m 17066,-8158 4941,0 m -4941,-3945 4941,0 0,8809 -4941,0 0,-8809 z m -17066,3945 4941,0 m -4941,-3945 4941,0 0,8809 -4941,0 0,-8809 z m 7889,-10379 6243,0 m -6243,3830 6243,0 m -3122,-8120 0,12486 m -3121,-12486 6243,0 0,12486 -6243,0 0,-12486 z m 3336,-6424 c 994,0 1800,806 1800,1800 0,995 -806,1800 -1800,1800 -994,0 -1800,-805 -1800,-1800 0,-994 806,-1800 1800,-1800 z"
         class="fil2 str1" />
      <path
         style="fill:#ffffff"
         sodipodi:nodetypes="ccccccccccccsccscccccccccccccccccccsccccccccccccccscccccccccccccsccccccccccscscsccsscccccccccccccscccccscssscscccccsccsccscscscsssssscccccccccscccsssssssscccsscccsscccsssssssssssssscccsscssssccccccssssscssccccscccsscccsccccssssccccsssssssccccscccsscsscccccccsccccccccsccsccsccccscccccsccccccccsccccccccccccccccsscccccccccccccccccccccccscccccccccccccccccccccsssscccssssccccccscccscccssssscccccscccccccssscccccccscccscccsssssssssscsscscccscssscsssscccccccssssssssscccsscccsccssccccccscccccssccsssccccssscccccccccccsccscccssccsssccccccccssccccsssssscsscccccccccccccsscccccsssssssscccccsscccsscsssssssssssccscccssccscccccsccscccscccsccsscccccscccccsscccscccccccccscccccsccsc"
         inkscape:connector-curvature="0"
         d="m 284916,517286 c 0,0 -1,0 -2,1 -10,14 28,116 127,302 218,414 277,763 133,807 -77,25 -105,-33 -111,-243 -5,-150 -49,-348 -100,-442 -85,-157 -566,-484 -645,-438 -19,11 45,63 143,113 98,51 242,181 320,291 143,204 192,669 82,773 -33,32 -88,150 -124,260 -95,286 -610,854 -1075,1185 -340,242 -504,305 -1105,423 -392,78 -1187,155 -1793,175 -1072,36 -2143,5 -2182,-61 -11,-18 538,-101 1217,-185 2745,-337 3491,-575 4097,-1304 236,-283 363,-624 303,-808 -25,-77 -57,-20 -116,202 -159,595 -608,953 -1507,1207 l -377,106 323,-204 c 374,-239 586,-534 608,-842 22,-299 -289,-694 -436,-554 -22,21 30,61 116,89 211,70 274,259 190,579 -87,331 -256,521 -622,704 -536,267 -1303,336 -2892,255 -438,-23 -976,-33 -1196,-23 -220,9 -371,1 -334,-18 37,-19 478,-200 981,-402 1101,-443 1518,-665 1754,-926 192,-213 289,-468 207,-553 -29,-31 -71,21 -98,124 -65,247 -434,532 -1022,786 -654,283 -782,314 -1870,480 -510,78 -1078,198 -1265,265 l -340,121 133,-314 c 280,-651 352,-1560 145,-1849 -43,-61 -44,44 -4,277 83,476 -3,1030 -232,1510 -98,207 -165,333 -204,382 -12,-11 -24,-23 -38,-35 8,-77 43,-227 102,-452 182,-693 147,-987 -173,-1450 -258,-373 -958,-751 -1115,-602 -33,31 40,75 184,113 348,91 618,448 686,904 58,391 -20,762 -257,1151 -162,-69 -307,-103 -579,-149 -33,-6 -100,-18 -147,-27 176,-670 135,-1361 -112,-1515 -57,-36 -56,2 6,125 50,99 97,286 105,410 12,182 -75,581 -191,946 -156,-28 -327,-59 -481,-87 l -119,-23 c -102,-80 -224,-110 -346,-65 l -58,-10 -300,62 c -231,48 -458,129 -681,241 l -513,71 -11,255 c -188,141 -374,306 -558,495 -264,272 -268,280 -256,431 8,93 -11,227 -50,340 -51,150 -56,213 -28,312 44,156 89,186 155,106 47,-56 51,-44 45,121 -1,25 -1,49 0,73 -79,143 -130,257 -130,257 l 228,87 c 4,9 7,17 11,27 89,198 116,307 112,454 -4,180 -18,211 -193,431 -350,440 -364,514 -126,680 88,61 181,112 206,113 55,3 56,38 1,164 -59,137 -25,241 97,298 98,46 103,59 77,180 -24,112 -13,147 75,257 87,108 101,155 94,317 -10,242 43,325 281,426 233,99 587,121 960,60 144,-23 282,-34 308,-22 20,8 32,94 35,196 -958,449 -2001,710 -2699,581 160,-44 -1815,-358 -3660,-297 -467,-80 -223,-32 -637,-142 -415,-110 -702,-151 -1003,-186 -188,-23 -489,132 -690,252 -120,71 -203,128 -203,128 l -514,166 c -168,-100 -517,-327 -887,-574 -33,-68 -65,-151 -104,-262 -87,-249 -90,-269 -48,-428 32,-120 109,-238 276,-424 219,-244 475,-660 465,-754 -3,-23 16,-64 42,-90 25,-26 93,-218 149,-427 80,-293 95,-406 68,-495 -27,-91 -19,-143 35,-236 59,-99 67,-171 49,-426 -19,-284 -27,-312 -119,-400 -92,-88 -101,-119 -136,-460 -28,-274 -56,-393 -108,-471 -75,-115 -431,-329 -733,-442 -105,-39 -193,-86 -195,-103 -9,-85 -240,-236 -507,-331 -302,-108 -438,-138 -744,-149 -44,-2 -91,-3 -143,-4 -165,-3 -540,-13 -832,-23 l -532,-18 -288,107 c -586,218 -1110,654 -1582,1316 -220,308 -224,317 -188,464 22,91 23,226 2,344 -28,156 -25,218 18,312 67,147 115,171 169,82 37,-63 44,-51 63,112 16,139 57,240 175,423 117,183 161,286 179,432 23,178 14,211 -126,456 -280,486 -282,562 -22,690 97,48 195,84 220,82 56,-6 61,28 27,161 -38,145 11,243 140,281 104,30 111,41 104,165 -7,114 8,148 112,243 102,94 124,138 141,299 26,242 92,314 343,378 245,63 597,32 956,-84 139,-45 275,-76 302,-69 53,14 121,488 80,560 39,296 107,537 199,730 l -397,1745 -59,1335 -242,-24 c -633,-62 -1815,-377 -2844,-759 l -424,-157 -400,158 c -220,87 -449,189 -510,227 -60,38 -169,93 -242,122 l -133,55 -179,-72 c -99,-39 -233,-79 -298,-88 -108,-15 -141,-5 -404,115 -497,228 -786,420 -891,591 -62,100 -116,1129 -104,1974 5,361 -6,1003 -26,1468 -36,810 -36,829 11,880 61,66 167,56 356,-33 143,-67 135,-66 391,3 47,13 29,64 -339,976 l -387,963 -227,249 c -258,284 -409,468 -468,572 -37,63 -38,87 -14,212 15,78 45,204 68,280 l 41,138 -482,1086 c -784,1768 -800,1803 -871,1871 -78,75 -363,259 -591,381 -87,47 -364,216 -616,375 l -459,289 9,172 c 5,95 2,172 -7,172 -8,0 -137,-49 -287,-108 -607,-240 -1306,-435 -2019,-565 -345,-63 -485,-75 -1263,-109 -777,-34 -919,-34 -1266,-2 -1093,102 -2018,322 -2992,712 -294,118 -406,170 -837,388 -1387,701 -2666,1812 -3614,3139 -2163,3030 -2478,7043 -815,10373 1544,3091 4521,5173 7954,5563 1332,152 2739,25 4044,-365 1241,-370 2404,-982 3432,-1807 1429,-1147 2523,-2666 3162,-4390 973,-2627 796,-5623 -478,-8107 -412,-802 -920,-1536 -1533,-2215 l -295,-327 102,-94 c 102,-91 104,-96 143,-332 22,-132 65,-345 95,-474 31,-129 59,-293 62,-365 5,-113 -58,-678 -96,-857 -12,-59 -12,-59 33,-10 74,81 904,1155 1430,1851 685,907 1519,1988 1825,2367 1916,2367 3611,3889 5682,5103 l 292,171 -78,178 c -109,249 -156,448 -169,718 -18,398 72,769 266,1099 110,188 364,478 529,602 136,103 135,94 29,309 -209,423 -647,808 -1022,897 -72,17 -211,50 -307,72 -267,64 -462,255 -560,549 -63,187 -118,238 -356,337 -115,48 -234,98 -265,112 -76,33 -147,163 -198,365 -81,313 -60,399 95,406 104,4 1001,-191 1088,-237 l 85,-45 -22,128 c -28,164 4,294 104,422 77,97 78,98 248,105 356,16 1043,-64 1583,-184 l 415,-92 99,-132 c 54,-73 98,-141 99,-152 0,-11 -99,-75 -220,-142 l -220,-121 115,-206 c 110,-196 119,-206 205,-215 50,-6 492,-36 982,-67 1189,-75 1055,-50 1172,-218 l 98,-141 -73,-19 c -40,-10 -236,-33 -436,-52 -200,-18 -361,-40 -357,-48 5,-9 80,-72 168,-140 210,-162 271,-248 277,-385 7,-141 -35,-223 -235,-460 l -164,-195 197,-5 c 441,-11 2653,27 2669,46 10,12 34,81 54,153 116,421 458,1237 721,1721 1124,2073 2942,3650 5145,4466 2154,798 4564,790 6723,-23 1728,-650 3267,-1816 4357,-3299 1002,-1364 1618,-2944 1814,-4655 232,-2019 -219,-4139 -1255,-5903 -1355,-2307 -3616,-3960 -6201,-4533 -628,-139 -897,-172 -1686,-207 -226,-9 -427,-15 -613,-15 30,-240 60,-686 380,-837 540,-256 2393,-358 3189,-505 795,-147 2192,-1259 2455,-1733 264,-474 1194,-461 1194,-461 l 289,-747 599,145 c 0,0 330,-942 341,-1185 11,-242 1163,-696 1429,-1231 266,-534 -207,-1399 -122,-1942 84,-543 -215,-615 -623,-997 -408,-382 -1279,-131 -2374,-58 -1096,74 -2123,39 -2123,39 -1562,-667 -3048,-1672 -4988,-1503 l -62,-838 994,-563 c 1078,-189 1339,-338 2056,-1186 l 21,-485 c 0,0 -386,530 -702,819 -316,290 -745,394 -1111,438 -367,45 -1303,610 -1303,610 l 35,-787 988,43 c 0,0 -367,-381 -604,-513 -237,-132 -361,-74 -361,-74 0,0 38,-911 -59,-1462 -36,-208 -239,-823 -478,-1510 328,-123 655,-384 968,-816 101,26 497,238 879,469 1666,1007 1945,1143 2829,1383 736,199 863,217 1175,165 418,-70 768,-268 998,-565 188,-243 363,-840 308,-1041 -29,-106 -51,-73 -118,175 -106,392 -328,642 -717,802 -536,220 -1071,132 -1744,-287 -309,-192 -1237,-940 -1196,-964 14,-8 219,82 455,201 654,331 1448,524 1885,459 483,-73 640,-192 189,-144 -565,60 -1465,-231 -2444,-791 l -227,-130 421,13 c 531,17 877,104 1335,332 1251,622 3233,-73 4067,-1427 276,-446 281,-582 9,-195 -297,423 -948,1007 -1434,1286 -491,281 -1165,452 -1564,398 l -249,-35 236,-27 c 1620,-191 2912,-1250 3400,-2787 162,-512 190,-689 174,-1067 -10,-249 -38,-502 -62,-563 -36,-89 -42,-80 -33,29 20,275 -194,1163 -396,1637 -206,484 -747,1404 -786,1337 -11,-19 78,-211 196,-428 281,-512 801,-2419 804,-2942 3,-342 -144,-770 -273,-804 -37,-9 -25,61 25,155 116,219 132,765 37,1293 l -76,412 11,-389 c 25,-828 -169,-1640 -512,-2141 -101,-146 -189,-375 -196,-509 -8,-137 -111,-398 -239,-602 -142,-226 -234,-349 -261,-361 l 0,-3 c -2,0 -3,-1 -4,-1 l 0,0 z m 493,1398 27,202 c 75,579 -768,1385 -1812,1732 -618,206 -1086,270 -1685,229 -481,-33 -706,-67 -645,-101 17,-9 315,-49 662,-88 954,-105 1543,-264 2114,-568 558,-297 1024,-738 1224,-1158 l 115,-248 z m -7563,705 c 85,4 -145,92 -836,348 -55,20 -109,43 -164,63 -94,-35 -188,-72 -283,-105 302,-112 666,-213 985,-266 156,-26 260,-41 298,-40 z m 2412,464 c 190,8 312,21 319,32 8,15 -402,70 -911,126 -380,42 -1044,153 -1664,274 -216,-100 -435,-196 -657,-288 259,-74 536,-123 819,-145 365,-29 1525,-23 2094,1 l 0,0 z m 5353,2849 c 1,0 2,0 1,2 -26,103 -617,1043 -748,1190 -428,481 -1094,793 -1704,799 -772,8 -806,-29 -181,-191 880,-229 1665,-703 2217,-1342 221,-256 398,-452 415,-458 l 0,0 z m -18789,3990 2717,582 c -5,4 -9,8 -14,12 l -2095,631 -736,-32 -554,147 -507,-162 c -136,-398 -289,-750 -453,-1042 l 349,-143 563,103 730,-96 z m 5442,1579 c 4,51 75,968 -2,1377 -79,422 -708,942 -708,942 0,0 -208,599 -279,839 l -111,1145 822,1979 c 0,0 653,1727 693,2215 36,448 -331,973 -423,1581 -992,-114 -1494,-250 -2167,-569 -344,-163 -432,-191 -713,-224 -244,-28 -608,3 -848,72 -84,24 -272,101 -418,171 -146,70 -306,141 -354,159 l -86,31 14,-288 c 12,-243 3,-359 -56,-742 -131,-854 -245,-1122 -710,-1675 -282,-335 -424,-535 -700,-987 -315,-515 -462,-914 -351,-949 121,-38 256,-154 323,-277 l 71,-129 26,-615 c 15,-341 19,-741 8,-900 -41,-639 -120,-1270 -230,-1862 44,4 86,3 122,-5 297,-60 580,-122 984,-265 404,-144 165,-77 624,-194 1730,199 2994,-425 4469,-830 l 0,0 z m -16418,2099 c 47,1 80,11 130,29 l 111,40 -239,126 c -197,105 -268,160 -413,318 -222,239 -268,313 -400,643 -110,274 -114,297 -206,1064 -11,94 -29,171 -39,170 -33,-1 -36,-284 -10,-886 l 26,-592 144,-137 c 117,-111 173,-192 294,-428 l 151,-293 235,-33 c 107,-14 168,-22 216,-21 l 0,0 z m 2478,266 c 205,10 282,27 516,98 l 298,90 -48,60 c -26,33 -73,81 -104,107 l -58,47 -175,-63 c -199,-72 -488,-123 -764,-136 -216,-10 -366,-37 -364,-66 1,-38 102,-104 193,-128 51,-13 235,-18 409,-12 35,1 67,2 97,3 l 0,0 z m -2018,763 108,137 106,137 -122,46 c -141,54 -231,142 -271,265 -32,99 -46,322 -30,490 l 10,114 454,244 c 249,134 515,289 591,346 194,144 569,482 888,801 l 273,272 42,177 c 99,410 329,560 471,308 61,-107 86,-338 64,-570 -19,-188 -76,-259 -860,-1074 -360,-375 -692,-720 -738,-768 -69,-73 -84,-109 -94,-225 -6,-75 -4,-178 5,-228 19,-105 109,-232 162,-230 68,3 930,308 1143,405 190,85 391,204 494,290 20,16 56,73 81,126 45,98 98,121 194,84 23,-10 78,26 155,100 137,130 217,164 319,134 51,-15 73,-13 79,8 15,54 75,101 133,104 114,5 187,-53 278,-223 l 89,-164 148,168 c 202,229 275,265 563,278 183,8 234,18 244,46 7,20 131,447 275,948 297,1028 367,1244 546,1669 140,331 145,370 83,741 -29,172 -366,1759 -401,1889 -7,26 -148,179 -314,341 -2817,2754 -3218,3236 -3248,3900 -21,448 125,666 821,1227 622,502 1046,675 2067,840 230,37 454,75 498,84 l 80,17 -56,878 -55,878 443,304 c 243,167 451,311 462,319 11,8 12,32 3,53 -25,56 -59,47 -249,-63 -93,-54 -325,-188 -515,-298 -581,-334 -1125,-669 -1272,-783 -153,-118 -279,-261 -1071,-1216 -1063,-1281 -1747,-2160 -1851,-2377 -141,-293 -777,-1260 -2142,-3259 -756,-1107 -846,-1256 -839,-1397 1,-22 52,-83 115,-135 63,-51 136,-141 164,-198 75,-153 99,-402 60,-622 l -33,-183 290,-834 c 461,-1328 600,-1687 681,-1756 96,-82 135,-222 132,-470 -3,-264 -64,-416 -194,-487 l -89,-48 25,-345 c 20,-278 37,-375 85,-497 80,-204 234,-435 391,-590 l 129,-128 z m 11516,7239 c 8,0 374,305 814,676 511,432 804,695 811,729 6,29 54,402 105,829 l 93,777 -689,1614 c -634,1485 -694,1614 -745,1616 -31,2 -82,-8 -114,-20 -32,-13 -189,-68 -350,-124 -661,-231 -1211,-551 -1671,-973 l -84,-76 247,-1587 246,-1588 353,-329 c 517,-482 700,-748 880,-1282 49,-144 95,-262 104,-262 l 0,0 z m -13784,461 c 3,0 5,2 8,5 320,427 2055,2698 2367,3099 241,310 590,762 773,1005 1411,1864 2220,2735 3214,3461 618,452 1408,878 2282,1232 l 178,71 206,1328 c 113,730 202,1330 198,1333 -10,9 -969,-733 -1495,-1157 -2260,-1821 -3726,-3338 -5228,-5408 -141,-195 -622,-925 -1067,-1622 -445,-697 -979,-1533 -1188,-1857 l -380,-589 55,-444 c 46,-363 61,-457 77,-457 l 0,0 z m 16956,2014 c 196,120 393,212 393,212 l 737,1033 c -386,-369 -747,-704 -884,-817 -176,-144 -330,-272 -341,-283 -12,-11 12,-54 55,-99 14,-14 27,-30 40,-46 l 0,0 z m 6182,426 c 98,-60 539,690 604,744 -190,4 -619,38 -798,55 73,-132 -233,-535 194,-799 z m -6589,585 c 13,0 1172,1139 1686,1652 25,138 67,278 133,416 -452,333 -1070,905 -1478,1371 -1103,1259 -1874,2827 -2193,4459 -24,123 -48,228 -53,232 -5,5 -316,11 -693,14 -858,6 -840,6 -838,-35 1,-19 46,-194 100,-389 54,-194 99,-358 99,-364 0,-6 62,-35 138,-64 303,-119 609,-335 1094,-771 l 468,-421 -156,-206 c -86,-113 -170,-224 -186,-247 -26,-36 -7,-64 149,-229 460,-488 736,-913 838,-1292 20,-74 35,-215 34,-328 -2,-238 -70,-402 -229,-554 -116,-113 -354,-251 -436,-254 -32,-2 -54,-12 -49,-23 57,-133 1559,-2968 1572,-2967 l 0,0 z m 7926,1585 c 2195,89 4291,1056 5793,2750 1331,1500 2059,3413 2058,5401 -1,1650 -445,3151 -1326,4483 -515,778 -1352,1671 -2027,2161 -1232,896 -2579,1400 -4150,1553 -301,29 -1449,2 -1764,-42 -2628,-371 -4860,-1910 -6124,-4222 -204,-375 -554,-1181 -550,-1270 1,-19 109,-44 305,-70 733,-99 1673,-273 3001,-559 765,-11 1965,-39 2213,-110 586,-199 1205,-416 1588,-730 26,-1 47,0 66,4 213,38 435,141 769,360 100,193 248,302 248,302 l 171,-29 c 110,66 202,112 299,154 167,70 408,136 519,141 l 91,4 -4,-160 c -3,-93 -14,-156 -64,-285 l 397,-69 c 0,0 385,-1864 414,-2530 29,-667 235,-1262 190,-1628 -44,-367 -873,-830 -984,-1078 -847,-2102 -420,-2967 -2373,-4394 0,0 -21,-30 -48,-88 432,-51 864,-67 1292,-49 l 0,0 z m -31823,-1033 c 391,17 782,49 1015,90 935,162 1819,459 2620,878 244,128 263,143 246,192 -72,201 -878,2339 -897,2380 -14,28 -116,281 -227,563 -251,636 -519,1252 -638,1465 -189,339 -498,693 -1039,1188 -714,653 -1322,1063 -1613,1087 -222,18 -411,87 -500,182 -141,151 -280,588 -295,927 l -6,145 130,128 c 160,155 559,379 847,475 279,93 570,108 725,38 210,-94 277,-335 194,-693 l -40,-177 489,-455 c 269,-251 599,-573 734,-717 1298,-1386 2096,-2749 3154,-5383 85,-211 157,-388 162,-393 21,-25 731,643 977,921 632,711 1116,1468 1495,2339 575,1322 797,2724 665,4212 -206,2333 -1384,4502 -3239,5964 -1114,879 -2411,1463 -3811,1717 -480,87 -845,121 -1403,132 -889,17 -1711,-98 -2615,-366 -3208,-950 -5626,-3796 -6049,-7120 -381,-2989 783,-5918 3101,-7800 1376,-1118 2996,-1766 4799,-1918 235,-20 627,-18 1019,-1 l 0,0 z m 26399,2809 c 610,1517 1297,3245 1983,4837 -377,-5 -784,-12 -1213,-19 -1793,-29 -3342,-56 -3441,-60 l -180,-7 55,-278 c 158,-801 328,-1304 639,-1890 457,-863 959,-1510 1692,-2185 153,-141 334,-295 465,-398 l 0,0 z m 2529,152 c 387,-19 2714,3018 2816,3788 122,324 108,697 80,1169 l -1642,-2316 c -242,-341 -451,-637 -680,-960 -205,-709 -395,-1281 -627,-1621 5,-39 24,-58 53,-60 z m -9899,-37 277,26 c 214,19 317,41 450,94 281,112 659,363 815,542 l 62,72 -400,339 c -454,384 -818,667 -1050,816 -87,56 -186,118 -220,137 l -60,34 -153,-291 c -85,-160 -156,-300 -159,-311 -4,-11 92,-55 212,-99 120,-44 224,-88 231,-98 6,-10 7,-261 0,-558 -7,-298 -10,-578 -8,-622 l 3,-81 z m 509,3926 c 9,7 -214,631 -231,647 -10,8 -124,22 -254,31 -131,9 -262,20 -292,25 -50,9 -53,1 -48,-107 l 5,-116 407,-242 c 224,-133 410,-241 413,-238 z m 9014,1189 c 93,213 186,421 279,627 -943,80 -2390,195 -4052,321 -767,58 -1419,105 -1448,103 l -53,-2 36,-431 c 37,-448 76,-762 96,-780 6,-5 1645,44 3642,111 608,20 1069,36 1500,51 z m -6627,-33 -38,635 c -20,349 -39,635 -41,636 -2,2 -248,5 -548,7 -300,1 -625,5 -723,8 -212,7 -221,0 -363,-297 l -89,-189 85,-411 c 46,-225 90,-413 95,-417 5,-5 372,0 815,10 l 807,18 z m 6051,2005 c -89,105 -165,195 -204,243 -94,115 -425,349 -739,559 -963,202 -1987,376 -3028,511 -158,20 -316,41 -352,46 -55,9 -69,0 -87,-54 -60,-181 -226,-1060 -205,-1079 6,-5 2584,-130 4615,-226 l 0,0 z"
         class="fil5"
         id="path3918_4" />
      <path
         style="fill:#373435;stroke:#373435;stroke-width:6.94488001"
         inkscape:connector-curvature="0"
         id="path4204"
         d="m 183194,520457 0,6455 -5911,0 0,-6455 c 0,-1724 1323,-3121 2955,-3121 1633,0 2956,1397 2956,3121 z m -32,-11164 -5911,0 0,-6454 c 0,-1724 1324,-3121 2956,-3121 1632,0 2955,1397 2955,3121 l 0,6454 z m 11423,0 0,-6454 c 0,-1724 1323,-3121 2955,-3121 1632,0 2956,1397 2956,3121 l 0,6454 -5911,0 z m 31,11164 c 0,-1724 1323,-3121 2955,-3121 1633,0 2956,1397 2956,3121 l 0,6455 -5911,0 0,-6455 z m 14278,-26281 -40380,0 0,67098 40380,0 0,-67098 z m -26136,47908 c 4219,-4267 8479,-3900 12277,-167 l 0,19268 -12277,0 0,-19101 z m -14244,-49775 40380,0 0,-1785 0,-1977 30,0 0,-11008 -521,0 -39368,0 -521,0 0,14770 z m 8993,-12531 c 1672,0 3027,2078 3027,4641 0,2563 -1355,4641 -3027,4641 -1672,0 -3027,-2078 -3027,-4641 0,-2563 1355,-4641 3027,-4641 z m 11359,9282 c -1671,0 -3027,-2078 -3027,-4641 0,-2563 1356,-4641 3027,-4641 1672,0 3027,2078 3027,4641 0,2563 -1355,4641 -3027,4641 z m 8495,-4641 c 0,-2563 1355,-4641 3027,-4641 1672,0 3027,2078 3027,4641 0,2563 -1355,4641 -3027,4641 -1672,0 -3027,-2078 -3027,-4641 z m -28326,-6880 39368,0 0,-1934 -2323,0 0,-3817 -3066,0 0,-2875 -3836,20 0,-2876 -6514,-5770 0,-2876 -3945,0 -3945,0 0,2876 -6514,5770 0,2876 -3836,-20 0,2875 -3066,0 0,3817 -2323,0 0,1934 z m 14368,-3125 24,-8741 10887,31 -24,8740 -10887,-30 z"
         class="fil4 str0" />
      <path
         style="fill:none;stroke:#373435;stroke-width:500"
         inkscape:connector-curvature="0"
         id="path4206"
         d="m 180207,499718 c -1632,0 -2956,1397 -2956,3121 0,0 5911,0 5911,0 0,-1724 -1323,-3121 -2955,-3121 z m -2956,9575 5911,0 0,-6454 -5911,0 0,6454 z m 544,-260 4729,0 0,-5887 -4729,0 0,5887 z m 1679,-5887 0,5887 m 1324,-5887 0,5887 m -3003,-2151 4729,0 m -4729,-1703 4729,0 m 15016,-5461 c -1632,0 -2955,1397 -2955,3121 0,0 5911,0 5911,0 0,-1724 -1324,-3121 -2956,-3121 z m -2955,9575 5911,0 0,-6454 -5911,0 0,6454 z m 543,-260 4729,0 0,-5887 -4729,0 0,5887 z m 1679,-5887 0,5887 m 1324,-5887 0,5887 m -3003,-2151 4729,0 m -4729,-1703 4729,0 m -19619,12157 c -1632,0 -2955,1397 -2955,3121 0,0 5911,0 5911,0 0,-1724 -1323,-3121 -2956,-3121 z m -2955,9576 5911,0 0,-6455 -5911,0 0,6455 z m 544,-260 4728,0 0,-5888 -4728,0 0,5888 z m 1678,-5888 0,5888 m 1324,-5888 0,5888 m -3002,-2152 4728,0 m -4728,-1702 4728,0 m 15016,-5462 c -1632,0 -2955,1397 -2955,3121 0,0 5911,0 5911,0 0,-1724 -1323,-3121 -2956,-3121 z m -2955,9576 5911,0 0,-6455 -5911,0 0,6455 z m 544,-260 4729,0 0,-5888 -4729,0 0,5888 z m 1679,-5888 0,5888 m 1324,-5888 0,5888 m -3003,-2152 4729,0 m -4729,-1702 4729,0 m -16486,-48384 10887,30 24,-8740 -10887,-31 -24,8741 z m 5967,-379 4309,0 0,-7666 -4309,0 0,7666 z m -5229,-89 4264,15 27,-7532 -4264,-15 -27,7532 z m -6634,5832 c 1672,0 3027,2078 3027,4641 0,2563 -1355,4641 -3027,4641 -1672,0 -3027,-2078 -3027,-4641 0,-2563 1355,-4641 3027,-4641 z m 0,0 0,9282 m -3027,-4641 6054,0 m 8332,-4641 c 1672,0 3027,2078 3027,4641 0,2563 -1355,4641 -3027,4641 -1671,0 -3027,-2078 -3027,-4641 0,-2563 1356,-4641 3027,-4641 z m 0,0 0,9282 m -3027,-4641 6054,0 m 8495,-4641 c 1672,0 3027,2078 3027,4641 0,2563 -1355,4641 -3027,4641 -1672,0 -3027,-2078 -3027,-4641 0,-2563 1355,-4641 3027,-4641 z m 0,0 0,9282 m -3027,-4641 6054,0 m -14696,-27008 -3945,0 0,2876 m -6514,5770 0,2876 m 0,-2876 6514,-5770 m -6514,8646 -3836,-20 m -3066,6692 -2323,0 0,1934 2323,0 m 0,-1934 0,-3817 m 3066,0 -3066,0 m 3066,0 0,-2875 m 14295,-11502 3945,0 0,2876 m 6514,5770 0,2876 m 0,-2876 -6514,-5770 m 6514,8646 3836,-20 m 3066,6692 2323,0 0,1934 -2323,0 m 0,-1934 0,-3817 m -3066,0 3066,0 m -3066,0 0,-2875 m -34500,8626 40410,0 0,83735 -40410,0 0,-83735 z m 0,14770 c 40410,0 40410,0 40410,0 m -40410,1867 c 40410,0 40410,0 40410,0 m -26166,67009 12277,0 0,-19268 c -3798,-3733 -8058,-4100 -12277,167 l 0,19101 z"
         class="fil2 str1" />
    </g>
  </g>
</svg>
